<svg xmlns="http://www.w3.org/2000/svg" width="1400" height="470" viewBox="0 0 1400 470" role="img" aria-label="Capability Lease 授权链路">
<rect width="1400" height="470" rx="28" fill="#fbfcff"/><text x="70" y="68" font-family="Inter,'Noto Sans SC','Microsoft YaHei','PingFang SC',Arial" font-size="36" font-weight="800" fill="#111827">Capability Lease · 短期能力租约</text><text x="70" y="103" font-family="Inter,'Noto Sans SC','Microsoft YaHei','PingFang SC',Arial" font-size="19" fill="#64748b">权限是短生命周期、Session 绑定、资源级、Action 级并且可主动撤销的。</text>
<g font-family="Inter,'Noto Sans SC','Microsoft YaHei','PingFang SC',Arial">
<g transform="translate(70 175)"><rect width="190" height="115" rx="20" fill="#eef4ff" stroke="#cbdcff"/><text x="95" y="48" text-anchor="middle" font-size="21" font-weight="700" fill="#1e3a8a">Capsule</text><text x="95" y="78" text-anchor="middle" font-size="16" fill="#64748b">请求外部 Action</text></g>
<g transform="translate(315 175)"><rect width="210" height="115" rx="20" fill="#f5f0ff" stroke="#ddd1ff"/><text x="105" y="48" text-anchor="middle" font-size="21" font-weight="700" fill="#5b21b6">Lease Gateway</text><text x="105" y="78" text-anchor="middle" font-size="16" fill="#64748b">复用或发起审批</text></g>
<g transform="translate(580 175)"><rect width="230" height="115" rx="20" fill="#ecfdf5" stroke="#bbf7d0"/><text x="115" y="48" text-anchor="middle" font-size="21" font-weight="700" fill="#166534">Lease Validate</text><text x="115" y="78" text-anchor="middle" font-size="16" fill="#64748b">Session · Instance · Action</text></g>
<g transform="translate(865 175)"><rect width="205" height="115" rx="20" fill="#fff7ed" stroke="#fed7aa"/><text x="102" y="48" text-anchor="middle" font-size="21" font-weight="700" fill="#9a3412">Credential</text><text x="102" y="78" text-anchor="middle" font-size="16" fill="#64748b">每次操作动态解析</text></g>
<g transform="translate(1125 175)"><rect width="205" height="115" rx="20" fill="#f1f5f9" stroke="#cbd5e1"/><text x="102" y="48" text-anchor="middle" font-size="21" font-weight="700" fill="#334155">Provider API</text><text x="102" y="78" text-anchor="middle" font-size="16" fill="#64748b">可信宿主代理执行</text></g>
</g>
<g stroke="#64748b" stroke-width="4" fill="none"><path d="M260 232h55"/><path d="M525 232h55"/><path d="M810 232h55"/><path d="M1070 232h55"/></g>
<g fill="#64748b"><path d="M315 232l-12-8v16Z"/><path d="M580 232l-12-8v16Z"/><path d="M865 232l-12-8v16Z"/><path d="M1125 232l-12-8v16Z"/></g>
<rect x="280" y="345" width="840" height="64" rx="16" fill="#1e293b"/><text x="700" y="385" text-anchor="middle" font-family="ui-monospace,SFMono-Regular,Menlo,monospace" font-size="18" fill="#e2e8f0">Capsule Instance × Session × Provider × Resource × Action × TTL</text>
</svg>
